<?xml version="1.0" encoding="UTF-8"?>
<svg width="14px" height="14px" viewBox="0 0 14 14" version="1.1" xmlns="http://www.w3.org/2000/svg" xmlns:xlink="http://www.w3.org/1999/xlink">
    <!-- Generator: Sketch 61 (89581) - https://sketch.com -->
    <title>首页 icon</title>
    <desc>Created with Sketch.</desc>
    <defs>
        <rect id="path-1" x="0" y="0" width="14" height="14"></rect>
        <polygon id="path-3" points="0 0.994 13.921 0.994 13.921 8.9852 0 8.9852"></polygon>
    </defs>
    <g id="页面-1" stroke="none" stroke-width="1" fill="none" fill-rule="evenodd">
        <g id="01概览" transform="translate(-196.000000, -63.000000)">
            <g id="面包屑" transform="translate(180.000000, 50.000000)">
                <g id="首页-icon" transform="translate(16.000000, 13.000000)">
                    <mask id="mask-2" fill="white">
                        <use xlink:href="#path-1"></use>
                    </mask>
                    <g id="蒙版"></g>
                    <g id="编组" mask="url(#mask-2)">
                        <g transform="translate(0.000000, -1.000000)">
                            <g id="编组" stroke-width="1" fill="none" transform="translate(0.000000, 0.006400)">
                                <mask id="mask-4" fill="white">
                                    <use xlink:href="#path-3"></use>
                                </mask>
                                <g id="Clip-2"></g>
                                <path d="M6.5936,1.1542 L0.1336,8.1462 C-0.1624,8.4662 0.0646,8.9852 0.5006,8.9852 L13.4206,8.9852 C13.8566,8.9852 14.0836,8.4662 13.7876,8.1462 L7.3276,1.1542 C7.1296,0.9402 6.7916,0.9402 6.5936,1.1542" id="Fill-1" fill="#C1CADC" mask="url(#mask-4)"></path>
                            </g>
                            <path d="M11.387,8.351 L2.534,8.351 C2.26,8.351 2.034,8.576 2.034,8.851 L2.034,14.506 C2.034,14.781 2.26,15.006 2.534,15.006 L5.461,15.006 L5.461,11.506 C5.461,11.231 5.685,11.006 5.961,11.006 L7.961,11.006 C8.236,11.006 8.461,11.231 8.461,11.506 L8.461,15.006 L11.387,15.006 C11.662,15.006 11.887,14.781 11.887,14.506 L11.887,8.851 C11.887,8.576 11.662,8.351 11.387,8.351" id="Fill-3" fill="#C1CADC"></path>
                        </g>
                    </g>
                </g>
            </g>
        </g>
    </g>
</svg>